<svg version="1.1" xmlns="http://www.w3.org/2000/svg" viewBox="0 0 801.2249145507812 562.9541625976562" width="801.2249145507812" height="562.9541625976562" filter="invert(93%) hue-rotate(180deg)">
  <!-- svg-source:excalidraw -->
  
  <defs>
    <style>
      @font-face {
        font-family: "Virgil";
        src: url("https://excalidraw.com/Virgil.woff2");
      }
      @font-face {
        font-family: "Cascadia";
        src: url("https://excalidraw.com/Cascadia.woff2");
      }
    </style>
  </defs>
  <rect x="0" y="0" width="801.2249145507812" height="562.9541625976562" fill="#ffffff"></rect><g stroke-opacity="0.6" fill-opacity="0.6" stroke-linecap="round" transform="translate(277.9107360839844 258.32873535156256) rotate(0 130.54977416992188 147.31271362304688)"><path d="M9.32 25.33 C9.32 25.33, 9.32 25.33, 9.32 25.33 M9.32 25.33 C9.32 25.33, 9.32 25.33, 9.32 25.33 M3.55 44.16 C10.88 31.48, 19.91 21.07, 37.67 4.92 M3.55 44.16 C16.88 31.31, 28.11 17.1, 37.67 4.92 M2.37 57.71 C17.72 39.44, 36.26 21.24, 49.61 3.38 M2.37 57.71 C17.69 37.48, 37.46 15.49, 49.61 3.38 M3.82 68.25 C21.24 44.29, 49.02 21.1, 62.21 1.08 M3.82 68.25 C20.31 49.99, 37.63 31.81, 62.21 1.08 M3.95 80.29 C30.71 49.6, 54.51 27.84, 70.21 4.06 M3.95 80.29 C29.84 49.71, 52.44 24.9, 70.21 4.06 M3.43 93.08 C29.52 61.98, 62.71 25.56, 80.84 4.03 M3.43 93.08 C18.96 75.69, 37.56 55.02, 80.84 4.03 M3.56 105.12 C35.34 70.91, 63 35.03, 91.47 3.99 M3.56 105.12 C27.85 76.24, 55.15 48.35, 91.47 3.99 M3.7 117.16 C36.68 77.68, 77.5 32.57, 101.45 4.71 M3.7 117.16 C31.27 84.68, 55.33 57.1, 101.45 4.71 M3.83 129.2 C45.62 81.35, 77.32 41.09, 112.08 4.68 M3.83 129.2 C27.86 100.78, 49.88 74.21, 112.08 4.68 M3.96 141.25 C43.62 95.85, 89.05 41.94, 122.71 4.64 M3.96 141.25 C31.46 106.68, 58.39 74.57, 122.71 4.64 M3.44 154.04 C47.85 104.46, 94.79 47.91, 133.34 4.61 M3.44 154.04 C48.62 102.86, 91.9 50.74, 133.34 4.61 M3.57 166.08 C42.58 127.45, 74.59 87.45, 143.97 4.57 M3.57 166.08 C36.72 125.01, 73.72 84.03, 143.97 4.57 M3.71 178.12 C48.52 131.88, 85.69 83.64, 154.6 4.54 M3.71 178.12 C44.85 130.62, 87.2 83.09, 154.6 4.54 M3.84 190.16 C33.42 151.74, 68.37 114.07, 165.23 4.51 M3.84 190.16 C53.24 133.44, 103.26 76.88, 165.23 4.51 M3.97 202.2 C44.57 157.48, 85.59 104.99, 175.2 5.23 M3.97 202.2 C53.6 139.98, 110.01 77.18, 175.2 5.23 M3.45 215 C41.63 163.97, 87.5 116.52, 185.83 5.19 M3.45 215 C67.02 140.71, 129.73 67.58, 185.83 5.19 M0.96 230.06 C67.17 160.7, 124.71 88.13, 196.46 5.16 M0.96 230.06 C75.81 142.2, 152.62 52.48, 196.46 5.16 M1.75 241.35 C64.5 161.41, 131.82 86.83, 207.09 5.12 M1.75 241.35 C85.86 149.73, 165.99 57.65, 207.09 5.12 M3.19 251.88 C80.67 159.44, 163.64 67.43, 217.07 5.84 M3.19 251.88 C68.6 171.31, 138.35 89.85, 217.07 5.84 M5.95 260.9 C70.59 191.39, 134.83 118.79, 225.07 8.83 M5.95 260.9 C46.81 209.48, 91.14 157.3, 225.07 8.83 M9.36 269.17 C53.57 214.06, 97.89 165.02, 233.08 11.81 M9.36 269.17 C90.15 180.61, 167.35 88.69, 233.08 11.81 M14.74 275.17 C105.71 174.83, 193.66 77.15, 241.74 14.04 M14.74 275.17 C60.43 217.78, 108.46 164.21, 241.74 14.04 M20.13 281.17 C71.91 224.5, 118.49 172.24, 247.12 20.04 M20.13 281.17 C72.44 227.19, 121.49 170.7, 247.12 20.04 M26.16 286.42 C80.11 222.88, 129.63 162.46, 252.5 26.05 M26.16 286.42 C113.17 181.73, 203.16 76.93, 252.5 26.05 M33.51 290.16 C104.9 209.58, 176.02 127.22, 255.92 34.31 M33.51 290.16 C92.62 221.7, 149.76 153.07, 255.92 34.31 M42.18 292.39 C117.24 207.12, 188.46 121.07, 261.3 40.32 M42.18 292.39 C84.3 242.95, 128.35 190.96, 261.3 40.32 M50.84 294.62 C110.98 228.91, 167.28 157.92, 263.4 50.09 M50.84 294.62 C125.46 204.52, 201.12 118.43, 263.4 50.09 M59.5 296.85 C129.99 211.64, 204.71 131.29, 264.85 60.63 M59.5 296.85 C104.58 245.47, 150.3 192.76, 264.85 60.63 M70.13 296.82 C134.84 222.68, 197.95 150.25, 264.98 72.67 M70.13 296.82 C138.78 219.11, 207.22 138.09, 264.98 72.67 M80.76 296.78 C122.01 250.58, 156.85 203.63, 264.46 85.46 M80.76 296.78 C137.31 229.01, 197.22 160.79, 264.46 85.46 M91.39 296.75 C157.46 224.19, 221.76 150.26, 264.59 97.5 M91.39 296.75 C134.7 245.87, 174.3 200.46, 264.59 97.5 M102.02 296.71 C134.87 253.35, 172.15 218.54, 264.72 109.54 M102.02 296.71 C156.15 235.35, 205.56 176.66, 264.72 109.54 M112.65 296.68 C164.45 233.84, 223.11 169.24, 264.86 121.58 M112.65 296.68 C172.16 232.24, 229.47 163.47, 264.86 121.58 M123.28 296.64 C168.64 245.58, 210.57 191.12, 264.99 133.63 M123.28 296.64 C162.95 250.75, 200.39 208.35, 264.99 133.63 M133.91 296.61 C182.27 239.74, 225.37 189.02, 264.47 146.42 M133.91 296.61 C168.56 254.67, 204.72 212.31, 264.47 146.42 M144.54 296.57 C170.65 263.67, 205.05 222.07, 264.6 158.46 M144.54 296.57 C170.04 264.4, 193.66 235.31, 264.6 158.46 M155.17 296.54 C179.91 267, 206.2 239.14, 264.73 170.5 M155.17 296.54 C179.54 268.31, 203.65 237.7, 264.73 170.5 M165.8 296.5 C190.75 268.97, 208.85 242.46, 264.87 182.54 M165.8 296.5 C189.53 271.43, 212.41 244.97, 264.87 182.54 M176.43 296.47 C209.95 262.05, 244.89 223.8, 265 194.58 M176.43 296.47 C196.88 272.18, 219.2 250.68, 265 194.58 M187.06 296.44 C217.95 257.55, 246.06 224.37, 264.48 207.38 M187.06 296.44 C218.77 261.37, 246.68 227.75, 264.48 207.38 M197.69 296.4 C214.05 278.86, 226.88 258.6, 264.61 219.42 M197.69 296.4 C218.53 274.72, 235.78 250.88, 264.61 219.42 M207.01 297.88 C228.68 272.13, 251.78 246.21, 264.74 231.46 M207.01 297.88 C231.19 271.94, 249.7 246.46, 264.74 231.46 M220.26 294.82 C234.25 281.15, 244.98 263.83, 266.19 241.99 M220.26 294.82 C235.26 278.48, 250.87 260.53, 266.19 241.99" stroke="#228be6" stroke-width="1" fill="none"></path><path d="M65.27 0 M65.27 0 C91.84 0.63, 121.7 2.85, 195.82 0 M65.27 0 C98.2 -1.03, 133.1 -0.95, 195.82 0 M195.82 0 C239.23 -2.91, 263.59 21.78, 261.1 65.27 M195.82 0 C236.68 -4.6, 263.6 21.98, 261.1 65.27 M261.1 65.27 C258.63 95.73, 259.05 133.18, 261.1 229.35 M261.1 65.27 C260.35 116.4, 261.82 166.94, 261.1 229.35 M261.1 229.35 C258.08 275.88, 242.06 295.15, 195.82 294.63 M261.1 229.35 C258.6 269.6, 240.49 292.53, 195.82 294.63 M195.82 294.63 C145.54 295.16, 93.55 294.49, 65.27 294.63 M195.82 294.63 C169.28 293.29, 138.4 294.99, 65.27 294.63 M65.27 294.63 C23.93 298.54, -3.41 276.35, 0 229.35 M65.27 294.63 C25.22 295.91, -0.35 268.9, 0 229.35 M0 229.35 C1.75 187.3, -4.01 149.13, 0 65.27 M0 229.35 C-2.86 183.6, -0.41 134.86, 0 65.27 M0 65.27 C-2.92 25.18, 24.95 2.65, 65.27 0 M0 65.27 C-0.45 26.22, 19.27 1.92, 65.27 0" stroke="#000000" stroke-width="2" fill="none"></path></g><g stroke-opacity="0.6" fill-opacity="0.6" stroke-linecap="round" transform="translate(10 113.44949340820318) rotate(0 101.19796752929688 93.57379150390628)"><path d="M6.89 17.92 C6.89 17.92, 6.89 17.92, 6.89 17.92 M6.89 17.92 C6.89 17.92, 6.89 17.92, 6.89 17.92 M4.4 32.98 C13.63 25.5, 14.06 16.05, 31.3 2.03 M4.4 32.98 C11.38 22.26, 20.67 12.5, 31.3 2.03 M3.88 45.77 C19.99 27.49, 35.67 9.5, 43.24 0.49 M3.88 45.77 C14.97 32.92, 22.6 24.33, 43.24 0.49 M4.01 57.81 C12.69 42.95, 26.27 37.19, 51.25 3.47 M4.01 57.81 C21.29 39.36, 34.24 22.22, 51.25 3.47 M3.49 70.61 C21.3 48.78, 45.98 23.78, 61.88 3.44 M3.49 70.61 C25.97 46.92, 47.41 18.89, 61.88 3.44 M3.62 82.65 C26.38 59.02, 45.09 30.38, 72.51 3.4 M3.62 82.65 C23.25 59.29, 41.37 39.21, 72.51 3.4 M3.75 94.69 C33.53 59.24, 58.54 29.33, 82.48 4.12 M3.75 94.69 C25.11 68.88, 46.88 43.09, 82.48 4.12 M3.23 107.49 C21.93 83.81, 48.75 50.93, 93.11 4.09 M3.23 107.49 C22.73 82.93, 40.01 61.15, 93.11 4.09 M3.36 119.53 C25.8 92.57, 49.9 67.21, 103.74 4.06 M3.36 119.53 C25.62 93.75, 47.68 65.5, 103.74 4.06 M2.84 132.32 C30.76 101.66, 51.61 71.97, 114.37 4.02 M2.84 132.32 C29.6 104.07, 55.43 74.2, 114.37 4.02 M1.01 146.63 C48.35 97.01, 96.62 43.43, 125 3.99 M1.01 146.63 C30.14 113, 60.34 82.43, 125 3.99 M3.11 156.4 C54.44 92.29, 104.25 34.23, 135.63 3.95 M3.11 156.4 C56.59 97.05, 106.33 38.47, 135.63 3.95 M7.18 163.92 C38.79 127.17, 68.3 88.38, 146.26 3.92 M7.18 163.92 C49.54 117.21, 87.81 69.68, 146.26 3.92 M9.94 172.94 C65.29 106.17, 122.97 40.39, 156.89 3.88 M9.94 172.94 C68.25 106.97, 120.88 42.82, 156.89 3.88 M15.97 178.19 C56.06 132.05, 95.27 82.73, 166.87 4.6 M15.97 178.19 C67.89 120.36, 119.1 61.46, 166.87 4.6 M22.67 182.68 C56.16 145.07, 90.65 108.68, 175.53 6.83 M22.67 182.68 C60.78 136.84, 101.16 91.9, 175.53 6.83 M31.33 184.91 C79.14 128.86, 121.38 80.16, 184.85 8.31 M31.33 184.91 C79.99 129.53, 126.71 75.9, 184.85 8.31 M39.99 187.14 C90.06 128.96, 144.79 71.8, 190.88 13.56 M39.99 187.14 C95.74 125.18, 146.04 63.5, 190.88 13.56 M46.68 191.63 C99.37 131.73, 145.44 78.23, 197.58 18.05 M46.68 191.63 C78.61 155.11, 113.45 116.92, 197.58 18.05 M57.31 191.6 C87.76 154.25, 116.1 126.8, 200.34 27.07 M57.31 191.6 C103.59 140.03, 150.19 86.8, 200.34 27.07 M67.94 191.56 C107.74 147.55, 149.34 99.5, 202.44 36.85 M67.94 191.56 C110.16 144.23, 157.23 92.86, 202.44 36.85 M78.57 191.53 C114.53 153.58, 148.75 105.96, 206.51 44.36 M78.57 191.53 C119.38 141.72, 161.53 89.8, 206.51 44.36 M89.2 191.5 C129.02 149.21, 162.78 105.58, 205.98 57.16 M89.2 191.5 C132.52 137.58, 179.11 87.81, 205.98 57.16 M99.83 191.46 C132.8 157.45, 155.64 124.51, 206.12 69.2 M99.83 191.46 C126.68 161.79, 155.72 130.26, 206.12 69.2 M110.46 191.43 C137.46 156.83, 164.18 128.87, 206.25 81.24 M110.46 191.43 C142.59 153.49, 176.51 116.53, 206.25 81.24 M121.09 191.39 C145.18 164.33, 169.86 129.82, 206.38 93.28 M121.09 191.39 C140.88 168.3, 162.21 144.41, 206.38 93.28 M131.72 191.36 C156.14 164.02, 177.9 141.52, 206.52 105.32 M131.72 191.36 C153.85 167.48, 171.55 145.6, 206.52 105.32 M141.7 192.08 C163.3 171.86, 179.42 149.97, 205.99 118.12 M141.7 192.08 C153.07 174.7, 168.39 160.21, 205.99 118.12 M152.33 192.04 C166.34 174.33, 187.79 150.23, 206.13 130.16 M152.33 192.04 C167.72 175.82, 180.66 160.67, 206.13 130.16 M164.93 189.74 C179.4 177.15, 192.76 161.99, 202.32 146.73 M164.93 189.74 C175.17 174.65, 188.61 161.16, 202.32 146.73 M178.18 186.69 C184.81 179.46, 191.2 172.41, 198.52 163.3 M178.18 186.69 C183 182.13, 190.14 176.14, 198.52 163.3" stroke="#228be6" stroke-width="1" fill="none"></path><path d="M46.79 0 M46.79 0 C74.05 1.23, 104.37 1.78, 155.61 0 M46.79 0 C80.23 0.72, 113.91 3.02, 155.61 0 M155.61 0 C182.86 3.23, 199.48 15.81, 202.4 46.79 M155.61 0 C183.31 -1.35, 202.62 14.94, 202.4 46.79 M202.4 46.79 C204.17 63.38, 201.45 85.3, 202.4 140.36 M202.4 46.79 C199.97 75.93, 201.42 106.78, 202.4 140.36 M202.4 140.36 C203.37 171.51, 188.43 188.45, 155.61 187.15 M202.4 140.36 C204.54 168.57, 189.28 188, 155.61 187.15 M155.61 187.15 C128.06 184.95, 102.31 183.55, 46.79 187.15 M155.61 187.15 C118.24 187.37, 75.73 184.79, 46.79 187.15 M46.79 187.15 C17.66 188.81, -2.78 174.08, 0 140.36 M46.79 187.15 C16.19 189.64, -2.29 168.69, 0 140.36 M0 140.36 C4.11 114.54, 3.09 90.76, 0 46.79 M0 140.36 C3.68 108.78, 1.72 82.04, 0 46.79 M0 46.79 C-2.61 18.15, 12.97 2.23, 46.79 0 M0 46.79 C-0.31 19.83, 17.63 -3.83, 46.79 0" stroke="#000000" stroke-width="2" fill="none"></path></g><g stroke-opacity="0.6" fill-opacity="0.6" stroke-linecap="round" transform="translate(588.8289794921875 119.4520874023438) rotate(0 101.19796752929688 93.57379150390628)"><path d="M6.89 17.92 C6.89 17.92, 6.89 17.92, 6.89 17.92 M6.89 17.92 C6.89 17.92, 6.89 17.92, 6.89 17.92 M4.4 32.98 C13.21 19.1, 23.55 10.07, 31.3 2.03 M4.4 32.98 C12.87 25.74, 19.52 17.61, 31.3 2.03 M3.88 45.77 C11.18 31.72, 24.97 25.93, 43.24 0.49 M3.88 45.77 C13.67 34.08, 24.68 23.35, 43.24 0.49 M4.01 57.81 C20.49 38.86, 29.71 25.1, 51.25 3.47 M4.01 57.81 C20.84 39.57, 36.93 22.09, 51.25 3.47 M3.49 70.61 C17.61 53.31, 36.63 30.94, 61.88 3.44 M3.49 70.61 C20.95 47.96, 40.53 28.07, 61.88 3.44 M3.62 82.65 C23.15 61.16, 41.06 33, 72.51 3.4 M3.62 82.65 C25.79 56.28, 50.94 29.96, 72.51 3.4 M3.75 94.69 C34.95 64.27, 59.68 25.53, 82.48 4.12 M3.75 94.69 C26.56 68.08, 49.93 41.59, 82.48 4.12 M3.23 107.49 C36.86 71.81, 68.92 33.61, 93.11 4.09 M3.23 107.49 C34.86 72.38, 66.88 38.21, 93.11 4.09 M3.36 119.53 C38.19 77.98, 74.63 38.15, 103.74 4.06 M3.36 119.53 C25.39 95.93, 47.61 68.79, 103.74 4.06 M2.84 132.32 C32.43 99.85, 61.18 68.97, 114.37 4.02 M2.84 132.32 C45.99 84, 90.44 33.47, 114.37 4.02 M1.01 146.63 C47.27 91, 97.72 37.28, 125 3.99 M1.01 146.63 C27.85 115.78, 53.53 85.43, 125 3.99 M3.11 156.4 C42.39 105.1, 86.96 59, 135.63 3.95 M3.11 156.4 C46.69 106.84, 87.92 57.53, 135.63 3.95 M7.18 163.92 C52.48 108.7, 96.29 57.29, 146.26 3.92 M7.18 163.92 C36.24 129.16, 68.5 90.45, 146.26 3.92 M9.94 172.94 C36.6 138.91, 69.98 103.46, 156.89 3.88 M9.94 172.94 C47.87 130.6, 86.77 88.9, 156.89 3.88 M15.97 178.19 C65.73 113.67, 126.42 49.61, 166.87 4.6 M15.97 178.19 C60.75 127.06, 105.53 76.38, 166.87 4.6 M22.67 182.68 C82 113.42, 142.03 48.91, 175.53 6.83 M22.67 182.68 C65.89 131.09, 110.39 81.63, 175.53 6.83 M31.33 184.91 C82.55 123.12, 137.13 55.55, 184.85 8.31 M31.33 184.91 C77.53 131.22, 123.64 73.79, 184.85 8.31 M39.99 187.14 C75.31 145.07, 113.43 100.74, 190.88 13.56 M39.99 187.14 C87.55 127.92, 138.76 70.29, 190.88 13.56 M46.68 191.63 C94.88 134.99, 148.5 73.65, 197.58 18.05 M46.68 191.63 C83.72 147.14, 124.06 100.08, 197.58 18.05 M57.31 191.6 C106.21 134.71, 157.27 78.77, 200.34 27.07 M57.31 191.6 C104.6 134.4, 150.9 80.56, 200.34 27.07 M67.94 191.56 C120.54 135.79, 165.22 84.19, 202.44 36.85 M67.94 191.56 C119.63 136.02, 165.99 82.22, 202.44 36.85 M78.57 191.53 C126.04 139.9, 173.3 80.24, 206.51 44.36 M78.57 191.53 C108.23 154.85, 138.18 116.32, 206.51 44.36 M89.2 191.5 C114.68 153.11, 147.13 122.6, 205.98 57.16 M89.2 191.5 C127.93 149.36, 167.22 104.17, 205.98 57.16 M99.83 191.46 C123.09 164.03, 146.82 130.08, 206.12 69.2 M99.83 191.46 C126.1 157.47, 154.49 126.44, 206.12 69.2 M110.46 191.43 C139.04 160.45, 171.61 119.9, 206.25 81.24 M110.46 191.43 C138.04 158.48, 169.53 124.53, 206.25 81.24 M121.09 191.39 C151.39 157.33, 180.15 125.97, 206.38 93.28 M121.09 191.39 C151.34 159, 178.34 126.03, 206.38 93.28 M131.72 191.36 C144.37 173.1, 166.63 154.06, 206.52 105.32 M131.72 191.36 C159.42 161.27, 188.89 128.71, 206.52 105.32 M141.7 192.08 C163.1 166.06, 179.7 144.43, 205.99 118.12 M141.7 192.08 C158.81 167.2, 177.18 147.24, 205.99 118.12 M152.33 192.04 C175.82 163.29, 199.71 139.6, 206.13 130.16 M152.33 192.04 C173.08 165.45, 195.92 143.26, 206.13 130.16 M164.93 189.74 C173.34 178.25, 178.29 172.32, 202.32 146.73 M164.93 189.74 C178.55 172.72, 192.71 157.86, 202.32 146.73 M178.18 186.69 C183.44 176.7, 196.2 171.75, 198.52 163.3 M178.18 186.69 C185.42 176.48, 195.12 170.61, 198.52 163.3" stroke="#228be6" stroke-width="1" fill="none"></path><path d="M46.79 0 M46.79 0 C70.77 -0.56, 101.9 -0.28, 155.61 0 M46.79 0 C86.91 1.52, 129.43 2.01, 155.61 0 M155.61 0 C184.18 2.55, 198.49 17.24, 202.4 46.79 M155.61 0 C189.72 -4.27, 202.9 15.75, 202.4 46.79 M202.4 46.79 C200.25 77.44, 201.8 99.89, 202.4 140.36 M202.4 46.79 C203.91 79.48, 203.83 112.47, 202.4 140.36 M202.4 140.36 C198.55 171.96, 189.89 184.06, 155.61 187.15 M202.4 140.36 C205.12 167.61, 185.72 183.3, 155.61 187.15 M155.61 187.15 C132.34 189.71, 103.21 190.38, 46.79 187.15 M155.61 187.15 C125.76 188.93, 99.1 186.63, 46.79 187.15 M46.79 187.15 C18.73 190.03, -3.7 170.35, 0 140.36 M46.79 187.15 C14.46 188.51, 2.39 172.16, 0 140.36 M0 140.36 C2.12 116.29, 0.84 101.55, 0 46.79 M0 140.36 C1.58 110.65, 0.42 85.84, 0 46.79 M0 46.79 C3.82 15.18, 12.16 2.98, 46.79 0 M0 46.79 C-3.66 17.58, 12.68 1.34, 46.79 0" stroke="#000000" stroke-width="2" fill="none"></path></g><g transform="translate(341.62310791015625 266.98193359375006) rotate(0 64.5 17.5)"><text x="0" y="25" font-family="Virgil, Segoe UI Emoji" font-size="28px" fill="#000000" text-anchor="start" style="white-space: pre;" direction="ltr">index.html</text></g><g stroke-linecap="round"><g transform="translate(109.79672241210943 301.2003173828125) rotate(0 79.63795733136448 50.93766093861311)"><path d="M2.13 1.24 C2.79 16.39, -22.38 75.23, 5.53 91.92 C33.45 108.61, 141.76 100.12, 169.6 101.38 M-0.16 -0.56 C-0.1 13.63, -25.2 71.14, 2.77 87.37 C30.74 103.6, 140.46 94.38, 167.68 96.82" stroke="#000000" stroke-width="2" fill="none"></path></g><g transform="translate(109.79672241210943 301.2003173828125) rotate(0 79.63795733136448 50.93766093861311)"><path d="M141.24 105.67 C150.65 102.66, 162.03 103.32, 167.47 99.75 M140.76 107.48 C145.16 105.67, 154.33 101.71, 168.06 96.47" stroke="#000000" stroke-width="2" fill="none"></path></g><g transform="translate(109.79672241210943 301.2003173828125) rotate(0 79.63795733136448 50.93766093861311)"><path d="M141.26 85.15 C150.8 89.44, 162.18 97.4, 167.47 99.75 M140.79 86.96 C145.21 90, 154.37 90.88, 168.06 96.47" stroke="#000000" stroke-width="2" fill="none"></path></g></g><g stroke-linecap="round"><g transform="translate(700.4296569824219 312.67010498046875) rotate(0 -72.91271117161835 53.68321435179959)"><path d="M2.64 -1.01 C2.31 15.18, 27.5 82.45, 0.61 99.86 C-26.27 117.28, -132.24 102.06, -158.67 103.49 M0.63 -4.02 C-0.08 13.72, 25.33 84.52, -0.23 102.72 C-25.79 120.91, -126.46 104.99, -152.74 105.14" stroke="#000000" stroke-width="2" fill="none"></path></g><g transform="translate(700.4296569824219 312.67010498046875) rotate(0 -72.91271117161835 53.68321435179959)"><path d="M-125.33 100.59 C-137.08 98.31, -150.22 102.54, -149.53 102.98 M-124.67 98.14 C-133.77 99.6, -147 104.96, -152.5 105.35" stroke="#000000" stroke-width="2" fill="none"></path></g><g transform="translate(700.4296569824219 312.67010498046875) rotate(0 -72.91271117161835 53.68321435179959)"><path d="M-126.8 121.06 C-138.38 110.72, -150.93 106.93, -149.53 102.98 M-126.14 118.61 C-134.65 111.92, -147.29 109.12, -152.5 105.35" stroke="#000000" stroke-width="2" fill="none"></path></g></g><g transform="translate(42.51266479492193 151.460693359375) rotate(0 71.5 52.5)"><text x="0" y="25" font-family="Virgil, Segoe UI Emoji" font-size="28px" fill="#000000" text-anchor="start" style="white-space: pre;" direction="ltr">style.css</text><text x="0" y="60" font-family="Virgil, Segoe UI Emoji" font-size="28px" fill="#000000" text-anchor="start" style="white-space: pre;" direction="ltr">    +</text><text x="0" y="95" font-family="Virgil, Segoe UI Emoji" font-size="28px" fill="#000000" text-anchor="start" style="white-space: pre;" direction="ltr">Bootstrap</text></g><g transform="translate(624.9108581542969 127.07666015625) rotate(0 72 87.5)"><text x="0" y="25" font-family="Virgil, Segoe UI Emoji" font-size="28px" fill="#000000" text-anchor="start" style="white-space: pre;" direction="ltr">script.js</text><text x="0" y="60" font-family="Virgil, Segoe UI Emoji" font-size="28px" fill="#000000" text-anchor="start" style="white-space: pre;" direction="ltr">Create </text><text x="0" y="95" font-family="Virgil, Segoe UI Emoji" font-size="28px" fill="#000000" text-anchor="start" style="white-space: pre;" direction="ltr">conditions </text><text x="0" y="130" font-family="Virgil, Segoe UI Emoji" font-size="28px" fill="#000000" text-anchor="start" style="white-space: pre;" direction="ltr">to text</text><text x="0" y="165" font-family="Virgil, Segoe UI Emoji" font-size="28px" fill="#000000" text-anchor="start" style="white-space: pre;" direction="ltr">inputs</text></g><g transform="translate(92.62222290039074 10) rotate(0 313 22.5)"><text x="0" y="32" font-family="Virgil, Segoe UI Emoji" font-size="36px" fill="#000000" text-anchor="start" style="white-space: pre;" direction="ltr">JavaScript - Simple Form Validation</text></g><g stroke-linecap="round" transform="translate(311.7494201660156 318.6324462890625) rotate(0 99.62612915039062 15.72113037109375)"><path d="M0.5 4.41 C0.5 4.41, 0.5 4.41, 0.5 4.41 M0.5 4.41 C0.5 4.41, 0.5 4.41, 0.5 4.41 M-0.02 17.21 C-0.05 13.99, 9.41 13.74, 11.79 3.62 M-0.02 17.21 C3.32 11.31, 9.08 6.59, 11.79 3.62 M2.74 26.23 C5.31 22.24, 11.08 13.71, 22.42 3.59 M2.74 26.23 C11.7 19.58, 18.71 10.89, 22.42 3.59 M8.12 32.23 C11.05 23.28, 16.32 16.09, 33.05 3.55 M8.12 32.23 C12.86 26.51, 18.45 19.3, 33.05 3.55 M18.75 32.2 C27.16 23.96, 27.34 14.62, 43.68 3.52 M18.75 32.2 C29.48 21.29, 39.33 11.52, 43.68 3.52 M29.38 32.16 C37.66 25.74, 40.31 18.89, 54.31 3.48 M29.38 32.16 C37.03 24.21, 43.98 14.04, 54.31 3.48 M40.01 32.13 C49.84 26.28, 54.9 16.27, 64.94 3.45 M40.01 32.13 C44.16 26.92, 51.6 17.04, 64.94 3.45 M50.64 32.09 C54.17 23.71, 61.32 14.27, 75.57 3.41 M50.64 32.09 C59.14 22.88, 65.45 16.19, 75.57 3.41 M61.27 32.06 C67.38 18.79, 77.67 13.23, 86.2 3.38 M61.27 32.06 C66.66 26.04, 73.04 19.65, 86.2 3.38 M71.9 32.02 C82.84 21.5, 85.1 17.25, 96.83 3.35 M71.9 32.02 C77.36 23.69, 83.67 18.9, 96.83 3.35 M82.53 31.99 C91.95 26.96, 90.47 19.39, 107.46 3.31 M82.53 31.99 C91.74 18.59, 101.83 10.63, 107.46 3.31 M93.16 31.96 C105.54 24.8, 107.48 14.28, 118.09 3.28 M93.16 31.96 C102.54 19.56, 112.56 9.91, 118.09 3.28 M103.79 31.92 C112.1 26.73, 119.2 14.51, 128.72 3.24 M103.79 31.92 C109.65 26.16, 115.85 16.32, 128.72 3.24 M114.42 31.89 C119.98 20.27, 133.04 12.01, 139.35 3.21 M114.42 31.89 C122.34 23.52, 128.81 17.61, 139.35 3.21 M125.05 31.85 C129.34 25.54, 141.93 16.85, 149.98 3.17 M125.05 31.85 C131.91 22.22, 138.88 15.1, 149.98 3.17 M135.68 31.82 C143.74 25.45, 154.69 14.58, 160.61 3.14 M135.68 31.82 C141.2 23.16, 149.26 14.51, 160.61 3.14 M146.31 31.78 C150.74 20.24, 159.77 15.46, 170.58 3.86 M146.31 31.78 C155.56 19.24, 164.16 10.01, 170.58 3.86 M156.94 31.75 C163.9 25.81, 170.6 15.21, 181.21 3.82 M156.94 31.75 C163.99 23.66, 169.96 13.82, 181.21 3.82 M167.57 31.71 C174.69 21.6, 184.53 9.75, 193.81 1.53 M167.57 31.71 C177.34 20.27, 184.78 11.58, 193.81 1.53 M178.2 31.68 C182.63 28.21, 189.71 24.6, 200.5 6.02 M178.2 31.68 C182.82 25.56, 189.77 20.42, 200.5 6.02 M188.83 31.64 C193.38 30.49, 193.92 20.26, 200.64 18.06 M188.83 31.64 C193.88 26.59, 195.97 25.17, 200.64 18.06" stroke="#228be6" stroke-width="1" fill="none"></path><path d="M7.86 0 M7.86 0 C83.68 3.5, 153.25 -0.61, 191.39 0 M7.86 0 C71.65 0.48, 136.48 -1.51, 191.39 0 M191.39 0 C198.88 -3.32, 200.7 -1.35, 199.25 7.86 M191.39 0 C193.45 0.4, 194.78 6.47, 199.25 7.86 M199.25 7.86 C197.39 12.84, 197.1 14.52, 199.25 23.58 M199.25 7.86 C200.6 10.11, 198.73 14.55, 199.25 23.58 M199.25 23.58 C199.57 30.01, 199.03 32.59, 191.39 31.44 M199.25 23.58 C196.67 31.74, 200.5 35.51, 191.39 31.44 M191.39 31.44 C138.59 32.24, 87.09 27.65, 7.86 31.44 M191.39 31.44 C121.49 29.58, 51.01 32.02, 7.86 31.44 M7.86 31.44 C4.9 27.96, -3.91 25.36, 0 23.58 M7.86 31.44 C3.61 31.18, -4.13 27.1, 0 23.58 M0 23.58 C-2.05 18.05, 0.11 14.12, 0 7.86 M0 23.58 C0.44 19.88, -1.43 17.3, 0 7.86 M0 7.86 C-2.27 0.2, 6.23 1.05, 7.86 0 M0 7.86 C3.74 3.45, 2.27 0.68, 7.86 0" stroke="#000000" stroke-width="2" fill="none"></path></g><g stroke-linecap="round" transform="translate(310.1013488769531 364.987060546875) rotate(0 99.62612915039062 15.72113037109375)"><path d="M0.5 4.41 C0.5 4.41, 0.5 4.41, 0.5 4.41 M0.5 4.41 C0.5 4.41, 0.5 4.41, 0.5 4.41 M-0.02 17.21 C1.09 13.38, 2.32 10.04, 11.79 3.62 M-0.02 17.21 C2.18 13, 7.48 9.4, 11.79 3.62 M2.74 26.23 C6.55 16.34, 16.91 9.97, 22.42 3.59 M2.74 26.23 C9.4 19.76, 13.59 13.51, 22.42 3.59 M8.12 32.23 C18.37 19.11, 25.03 11.65, 33.05 3.55 M8.12 32.23 C13.68 25.26, 18.59 20.15, 33.05 3.55 M18.75 32.2 C21.75 24.39, 30.16 14.41, 43.68 3.52 M18.75 32.2 C26.88 25.18, 34.82 14.72, 43.68 3.52 M29.38 32.16 C37.9 24.51, 48.31 14.22, 54.31 3.48 M29.38 32.16 C37.23 23.81, 39.91 18.08, 54.31 3.48 M40.01 32.13 C44.91 23.79, 57.87 18.72, 64.94 3.45 M40.01 32.13 C46.65 25.69, 49.85 20.57, 64.94 3.45 M50.64 32.09 C56.86 29.49, 58.21 21.94, 75.57 3.41 M50.64 32.09 C54.45 26.54, 59.3 21.82, 75.57 3.41 M61.27 32.06 C65.03 25.38, 71.2 14.74, 86.2 3.38 M61.27 32.06 C68.43 22.9, 72.09 16.76, 86.2 3.38 M71.9 32.02 C80.55 20.65, 89.62 17.42, 96.83 3.35 M71.9 32.02 C81.56 20.48, 91.9 9.35, 96.83 3.35 M82.53 31.99 C87.14 26.23, 89.18 19.79, 107.46 3.31 M82.53 31.99 C88.65 21.03, 99.43 12.98, 107.46 3.31 M93.16 31.96 C100.3 28.8, 101.41 19.88, 118.09 3.28 M93.16 31.96 C100.71 23.73, 108.73 14.33, 118.09 3.28 M103.79 31.92 C106.48 29.74, 115.23 23.3, 128.72 3.24 M103.79 31.92 C110.37 21.84, 120.08 13.28, 128.72 3.24 M114.42 31.89 C123.93 18.42, 132.4 11.59, 139.35 3.21 M114.42 31.89 C121.69 22.98, 131.84 12.57, 139.35 3.21 M125.05 31.85 C133.41 22.94, 135.63 14.99, 149.98 3.17 M125.05 31.85 C134.38 21.84, 144.11 10.89, 149.98 3.17 M135.68 31.82 C142.21 25.66, 148.28 18.41, 160.61 3.14 M135.68 31.82 C146.37 21.25, 154.3 11.05, 160.61 3.14 M146.31 31.78 C154.63 24.4, 162.96 14.1, 170.58 3.86 M146.31 31.78 C153.18 22.12, 163.77 10.49, 170.58 3.86 M156.94 31.75 C161.52 23.81, 174.61 19.21, 181.21 3.82 M156.94 31.75 C163.51 21.35, 171.32 13.29, 181.21 3.82 M167.57 31.71 C173.07 20.09, 178.88 14.64, 193.81 1.53 M167.57 31.71 C174.49 23.64, 183.08 11.22, 193.81 1.53 M178.2 31.68 C189.01 22.48, 191.57 13.74, 200.5 6.02 M178.2 31.68 C184.09 24.86, 186.54 22.83, 200.5 6.02 M188.83 31.64 C190.57 27.16, 197.05 24.33, 200.64 18.06 M188.83 31.64 C193.21 28.25, 194.87 24.49, 200.64 18.06" stroke="#228be6" stroke-width="1" fill="none"></path><path d="M7.86 0 M7.86 0 C61.69 3.32, 116.05 -0.48, 191.39 0 M7.86 0 C51.68 -3.59, 95.47 -1.01, 191.39 0 M191.39 0 C194.62 -1.56, 201.31 3.02, 199.25 7.86 M191.39 0 C193.26 1.22, 198.57 -0.66, 199.25 7.86 M199.25 7.86 C200.85 14.44, 199.66 19.74, 199.25 23.58 M199.25 7.86 C200.9 12.38, 199.95 17.78, 199.25 23.58 M199.25 23.58 C201.42 25.62, 195.69 30.07, 191.39 31.44 M199.25 23.58 C196.81 27.61, 196.89 27.08, 191.39 31.44 M191.39 31.44 C140.82 34.53, 93.87 34.92, 7.86 31.44 M191.39 31.44 C141.61 27.73, 94.21 28.06, 7.86 31.44 M7.86 31.44 C1.89 34.96, 2.26 30.91, 0 23.58 M7.86 31.44 C4.24 29.19, -0.13 25.55, 0 23.58 M0 23.58 C0.78 21.01, 1.3 15.93, 0 7.86 M0 23.58 C-0.61 18.55, 1.5 16.36, 0 7.86 M0 7.86 C3.37 0.26, 4.61 -2.93, 7.86 0 M0 7.86 C-1.9 4.56, 4.46 2.6, 7.86 0" stroke="#000000" stroke-width="2" fill="none"></path></g><g transform="translate(339.86801147460943 314.7132568359375) rotate(0 71.99999999999997 17.5)"><text x="0" y="25" font-family="Virgil, Segoe UI Emoji" font-size="28px" fill="#000000" text-anchor="start" style="white-space: pre;" direction="ltr">name input</text></g><g transform="translate(315.7617492675782 364.97453927521656) rotate(0 94.82843017578122 16.430668594813596)"><text x="0" y="22.86133718962717" font-family="Virgil, Segoe UI Emoji" font-size="26.289069751701728px" fill="#000000" text-anchor="start" style="white-space: pre;" direction="ltr">password input</text></g><g stroke-linecap="round" transform="translate(320.5228576660157 415.199951171875) rotate(0 85.93881225585935 22.24420166015625)"><path d="M2.96 2.57 C2.96 2.57, 2.96 2.57, 2.96 2.57 M2.96 2.57 C2.96 2.57, 2.96 2.57, 2.96 2.57 M3.75 13.86 C5.18 11.97, 12.63 8.99, 13.59 2.54 M3.75 13.86 C6.14 11.08, 8.91 6.19, 13.59 2.54 M3.88 25.9 C12 13.55, 19.41 9.48, 24.22 2.5 M3.88 25.9 C9.82 18.37, 18.7 7.79, 24.22 2.5 M2.7 39.45 C13.85 27.04, 19.39 20.07, 34.85 2.47 M2.7 39.45 C15.28 26.43, 26.49 10.51, 34.85 2.47 M8.09 45.45 C24.56 32.73, 36.57 18.17, 45.48 2.44 M8.09 45.45 C18 33.79, 29.49 22.5, 45.48 2.44 M18.72 45.42 C24.02 34.78, 36.08 29.14, 56.11 2.4 M18.72 45.42 C31.5 32.68, 42.74 17.58, 56.11 2.4 M29.35 45.38 C40.4 28.76, 52.34 18.27, 66.74 2.37 M29.35 45.38 C41.88 32.61, 53.13 18.12, 66.74 2.37 M39.98 45.35 C50.35 34.23, 59.83 26.69, 77.37 2.33 M39.98 45.35 C48.37 35.16, 56.95 27.02, 77.37 2.33 M50.61 45.32 C62.96 34.47, 72.18 21.79, 88 2.3 M50.61 45.32 C63.88 31.1, 75.34 16.23, 88 2.3 M61.24 45.28 C73.87 35.05, 89.96 17.73, 97.98 3.02 M61.24 45.28 C74.01 28.29, 89.23 12.29, 97.98 3.02 M71.21 46 C78.4 31.19, 91.87 21.42, 108.61 2.98 M71.21 46 C82.74 34.04, 89.62 24.92, 108.61 2.98 M81.84 45.97 C95.94 27.27, 110.47 7.52, 119.24 2.95 M81.84 45.97 C92.65 30.37, 108.43 15.05, 119.24 2.95 M92.47 45.93 C103.88 34.45, 117.08 17.6, 129.87 2.91 M92.47 45.93 C105.86 30.35, 118.42 17.88, 129.87 2.91 M103.1 45.9 C119.35 33.03, 129.89 10.18, 140.5 2.88 M103.1 45.9 C109.63 35.94, 120.61 25.64, 140.5 2.88 M113.73 45.86 C120.12 35.62, 132.22 20.47, 151.13 2.85 M113.73 45.86 C126.64 35.12, 136.72 23.12, 151.13 2.85 M124.36 45.83 C137.94 35.25, 145.49 26.9, 161.76 2.81 M124.36 45.83 C137.61 29.7, 151.01 15.64, 161.76 2.81 M134.99 45.79 C144.06 37.05, 151.38 32, 170.42 5.04 M134.99 45.79 C146.29 30.44, 158.92 17.91, 170.42 5.04 M145.62 45.76 C155.96 38.17, 163.05 24.98, 176.46 10.29 M145.62 45.76 C154.11 36.11, 164.83 25.78, 176.46 10.29 M156.25 45.73 C161.32 41.39, 167.63 28.68, 175.93 23.08 M156.25 45.73 C162.32 37.62, 169.66 27.03, 175.93 23.08" stroke="#40c057" stroke-width="1" fill="none"></path><path d="M11.12 0 M11.12 0 C64.72 -2.84, 109.84 -2.26, 160.76 0 M11.12 0 C67.98 -1.51, 126.42 -2.49, 160.76 0 M160.76 0 C169.45 3.33, 174.2 5.84, 171.88 11.12 M160.76 0 C168.72 -0.54, 168.03 3.41, 171.88 11.12 M171.88 11.12 C173.35 19.77, 168.9 23.58, 171.88 33.37 M171.88 11.12 C170.22 17.98, 169.92 28.99, 171.88 33.37 M171.88 33.37 C170.44 40.08, 167.34 48.4, 160.76 44.49 M171.88 33.37 C170.07 43.35, 167.82 39.96, 160.76 44.49 M160.76 44.49 C129.09 49.5, 98.62 43.81, 11.12 44.49 M160.76 44.49 C105.22 46.2, 47.66 45.89, 11.12 44.49 M11.12 44.49 C7.43 47.82, -2.95 41.71, 0 33.37 M11.12 44.49 C1.25 42.98, 1.89 41.22, 0 33.37 M0 33.37 C-2.74 24.75, 1.46 17.97, 0 11.12 M0 33.37 C1.89 28.37, 0.18 22.69, 0 11.12 M0 11.12 C0.26 0.68, 1.08 0.32, 11.12 0 M0 11.12 C-4.57 5.76, 5.34 -0.62, 11.12 0" stroke="#000000" stroke-width="2" fill="none"></path></g><g transform="translate(319.43807983398443 423.1888970269098) rotate(0 84.82606201171885 15.708530002170136)"><text x="0" y="22.417060004340286" font-family="Virgil, Segoe UI Emoji" font-size="25.133648003472235px" fill="#000000" text-anchor="start" style="white-space: pre;" direction="ltr">submit button</text></g><g stroke-linecap="round" transform="translate(300.36624145507824 480.2955322265625) rotate(0 110.87829589843744 17.93640136718753)"><path d="M2.39 2.08 C2.39 2.08, 2.39 2.08, 2.39 2.08 M2.39 2.08 C2.39 2.08, 2.39 2.08, 2.39 2.08 M6.46 9.59 C10.28 8.93, 9.11 5.3, 12.36 2.8 M6.46 9.59 C8.16 8.17, 10.81 5.88, 12.36 2.8 M1.34 27.67 C5.98 14.16, 18.3 6.37, 22.99 2.76 M1.34 27.67 C8.76 17.75, 16.33 10.12, 22.99 2.76 M4.75 35.93 C15.38 29.21, 25.72 15.17, 33.62 2.73 M4.75 35.93 C13.94 24.26, 21.38 16.86, 33.62 2.73 M12.76 38.92 C22.36 29.78, 33.41 13.41, 44.25 2.69 M12.76 38.92 C20.2 28.57, 33.66 14.87, 44.25 2.69 M23.39 38.88 C31.24 27.79, 40.04 24.56, 54.88 2.66 M23.39 38.88 C33.72 24.97, 46.09 11.94, 54.88 2.66 M34.02 38.85 C41.94 30.9, 51.45 19.22, 65.51 2.62 M34.02 38.85 C43.53 29.41, 50.65 23.21, 65.51 2.62 M44.65 38.81 C49.68 27.48, 57.87 24.97, 76.14 2.59 M44.65 38.81 C57.75 26.17, 69.11 11.4, 76.14 2.59 M55.28 38.78 C62.76 25.4, 75.28 15.05, 86.77 2.55 M55.28 38.78 C62.59 28.76, 71.33 19.64, 86.77 2.55 M65.91 38.75 C76 25.81, 88.59 6.65, 97.4 2.52 M65.91 38.75 C74.83 32.08, 79.8 19.98, 97.4 2.52 M76.54 38.71 C87.71 28.29, 94.68 19.6, 107.38 3.24 M76.54 38.71 C89.01 24.19, 97.92 12.34, 107.38 3.24 M86.52 39.43 C96.13 29.7, 99.43 19.06, 118.01 3.21 M86.52 39.43 C98.77 27.56, 112.06 14, 118.01 3.21 M97.15 39.4 C104.68 33.26, 117.29 19.76, 128.64 3.17 M97.15 39.4 C103.37 32.45, 111.24 24.72, 128.64 3.17 M107.78 39.36 C117.46 28.37, 134.74 9.28, 139.27 3.14 M107.78 39.36 C118.39 25.19, 132.42 11.37, 139.27 3.14 M118.41 39.33 C131.01 28.83, 137.46 16.11, 149.9 3.1 M118.41 39.33 C128.28 25.91, 138.22 15.66, 149.9 3.1 M129.04 39.29 C141.31 26.78, 150.27 19.55, 160.53 3.07 M129.04 39.29 C136.72 28.61, 145.92 19.12, 160.53 3.07 M139.67 39.26 C154.66 25.23, 166.12 10.16, 171.16 3.03 M139.67 39.26 C147.81 30.97, 154.03 19.82, 171.16 3.03 M150.3 39.22 C154.06 31.95, 161.82 24.01, 181.79 3 M150.3 39.22 C155.1 31.95, 165 24.38, 181.79 3 M160.93 39.19 C169.3 28.56, 184.53 9.73, 192.42 2.96 M160.93 39.19 C165.63 29.15, 172.45 24.69, 192.42 2.96 M171.56 39.16 C180.35 26.89, 188.42 15.98, 203.05 2.93 M171.56 39.16 C178.7 30.37, 187.31 23.13, 203.05 2.93 M182.19 39.12 C195.05 24.28, 204.19 14.47, 214.99 1.39 M182.19 39.12 C190.58 28.21, 203.8 17.42, 214.99 1.39 M192.82 39.09 C201.85 24.28, 216.68 9.66, 221.68 5.88 M192.82 39.09 C197.5 33.39, 207.24 26.51, 221.68 5.88 M203.45 39.05 C209.55 30.94, 212.26 31.62, 222.47 17.17 M203.45 39.05 C207.59 30.92, 213.04 27.87, 222.47 17.17 M215.39 37.51 C215.91 34, 219.02 30.66, 223.26 28.45 M215.39 37.51 C218.39 33.75, 219.72 32.25, 223.26 28.45" stroke="#fa5252" stroke-width="1" fill="none"></path><path d="M8.97 0 M8.97 0 C76.15 -3.14, 145.85 1.04, 212.79 0 M8.97 0 C77.23 -1.99, 144.27 0.24, 212.79 0 M212.79 0 C214.82 -2.09, 218.21 5.85, 221.76 8.97 M212.79 0 C215.91 2.79, 218.14 0.62, 221.76 8.97 M221.76 8.97 C222.47 16.08, 218.08 15.12, 221.76 26.9 M221.76 8.97 C222.77 14.79, 220.82 17.32, 221.76 26.9 M221.76 26.9 C225.61 36.17, 219.38 34.08, 212.79 35.87 M221.76 26.9 C225.17 34.46, 216.61 38.85, 212.79 35.87 M212.79 35.87 C151.82 33.9, 89.39 31.35, 8.97 35.87 M212.79 35.87 C140.08 37.33, 67.42 39.34, 8.97 35.87 M8.97 35.87 C1.99 32.03, -1.43 35.1, 0 26.9 M8.97 35.87 C1.1 37.19, 0.91 37, 0 26.9 M0 26.9 C-0.59 23.75, -1.45 21.4, 0 8.97 M0 26.9 C-0.35 21.33, -0.66 17.33, 0 8.97 M0 8.97 C1.92 6.57, 1.79 3.43, 8.97 0 M0 8.97 C2.41 2.86, 6.54 -3.67, 8.97 0" stroke="#000000" stroke-width="2" fill="none"></path></g><g transform="translate(314.2370910644532 481.910888671875) rotate(0 97.99999999999997 17.5)"><text x="0" y="25" font-family="Virgil, Segoe UI Emoji" font-size="28px" fill="#000000" text-anchor="start" style="white-space: pre;" direction="ltr">Error message</text></g></svg>